<?xml version="1.0" encoding="utf-8"?>
<!-- Generator: Adobe Illustrator 16.0.0, SVG Export Plug-In . SVG Version: 6.00 Build 0)  -->
<!DOCTYPE svg PUBLIC "-//W3C//DTD SVG 1.1//EN" "http://www.w3.org/Graphics/SVG/1.1/DTD/svg11.dtd">
<svg version="1.1" id="Layer_1" xmlns="http://www.w3.org/2000/svg" xmlns:xlink="http://www.w3.org/1999/xlink" x="0px" y="0px"
	 width="100px" height="100px" viewBox="0 0 100 100" enable-background="new 0 0 100 100" xml:space="preserve">
<path d="M50.687,28.155c-9.049,0-16.41,7.361-16.41,16.41c0,2.832,0.744,5.635,2.146,8.103c2.267,4.757,3.313,9.947,3.802,13.797
	h-3.283c-0.552,0-1,0.448-1,1v8.875c0,1.999,1.626,3.625,3.625,3.625l2.629,0c0.443,1.687,1.981,2.934,3.805,2.934h8.757
	c1.824,0,3.362-1.248,3.805-2.935h2.629c1.999,0,3.625-1.626,3.625-3.625v-8.875c0-0.552-0.448-1-1-1h-2.668
	c0.488-3.844,1.529-9.021,3.756-13.708c1.434-2.483,2.191-5.316,2.191-8.192C67.097,35.516,59.735,28.155,50.687,28.155z
	 M62.817,76.34c0,0.896-0.729,1.625-1.625,1.625l-3.5,0.001c-0.552,0-1,0.448-1,1c0,1.066-0.868,1.934-1.934,1.934h-8.757
	c-1.066,0-1.934-0.868-1.934-1.935c0-0.552-0.448-1-1-1h-3.5c-0.896,0-1.625-0.729-1.625-1.625v-7.875h3.411h18.667h2.797V76.34z
	 M48.283,55.069c-1.03-1.252-2.638-1.542-2.73-1.557c-0.549-0.091-1.06,0.278-1.151,0.822c-0.091,0.545,0.277,1.06,0.822,1.151
	c0.017,0.003,1.676,0.295,1.886,1.712c0.03,0.2,0.056,0.468,0.08,0.767h-1.072c-1.221,0-2.045-0.339-2.518-1.038
	c-0.846-1.25-0.564-3.486-0.138-5.169c0.967,0.824,2.035,1.002,2.829,1.134c0.26,0.043,0.505,0.08,0.721,0.149
	c0.561,0.178,0.911,0.474,1.101,0.93C48.246,54.29,48.29,54.67,48.283,55.069z M52.004,45.411c0.362-0.87,1.042-1.453,2.079-1.783
	c0.334-0.106,0.759-0.177,1.208-0.252c1.431-0.238,3.276-0.545,4.821-2.299c0.813,2.79,1.567,7.128-0.037,9.501
	c-0.855,1.265-2.301,1.88-4.42,1.88h-2.292c0.05-0.757,0.108-1.397,0.176-1.854c0.384-2.592,3.292-3.137,3.428-3.161
	c0.543-0.092,0.91-0.606,0.819-1.15c-0.09-0.544-0.604-0.914-1.151-0.822c-0.162,0.027-3.563,0.636-4.741,3.61
	C51.634,47.791,51.573,46.446,52.004,45.411z M63.136,51.828c-2.419,5.083-3.513,10.618-4.007,14.638h-6.08
	c0-0.094,0.003-7.117,0.208-12.007h2.397c2.794,0,4.839-0.929,6.077-2.76c3.05-4.513-0.256-12.884-0.399-13.238
	c-0.146-0.365-0.494-0.61-0.887-0.626c-0.396-0.021-0.76,0.199-0.936,0.552c-1.233,2.466-2.918,2.746-4.547,3.018
	c-0.522,0.086-1.015,0.168-1.486,0.318c-1.61,0.512-2.728,1.497-3.321,2.925c-1.326,3.195,0.544,7.645,1.141,8.919
	c-0.244,4.909-0.248,12.493-0.248,12.899h-1.633c-0.007-1.526-0.035-4.913-0.153-7.356c0.449-0.967,1.581-3.777,0.697-5.905
	c-0.415-1-1.225-1.716-2.343-2.072c-0.325-0.104-0.667-0.16-0.999-0.215c-1.037-0.173-1.932-0.322-2.636-1.73
	c-0.176-0.352-0.533-0.572-0.936-0.552c-0.393,0.016-0.74,0.261-0.887,0.626c-0.235,0.584-2.236,5.797-0.219,8.782
	c0.861,1.273,2.266,1.919,4.176,1.919h1.182c0.086,2.274,0.11,5.135,0.116,6.502h-5.171c-0.495-4.026-1.591-9.569-4.017-14.661
	c-0.014-0.032-0.043-0.093-0.061-0.124c-1.236-2.17-1.89-4.631-1.89-7.116c0-7.946,6.464-14.41,14.41-14.41s14.41,6.464,14.41,14.41
	C65.097,47.091,64.432,49.578,63.136,51.828z"/>
<path d="M49.687,16.583v7.375c0,0.552,0.448,1,1,1s1-0.448,1-1v-7.375c0-0.552-0.448-1-1-1S49.687,16.031,49.687,16.583z"/>
<path d="M70.396,23.875c-0.391-0.391-1.023-0.391-1.414,0l-5.215,5.215c-0.391,0.391-0.391,1.023,0,1.414
	c0.195,0.195,0.451,0.293,0.707,0.293s0.512-0.098,0.707-0.293l5.215-5.215C70.787,24.898,70.787,24.265,70.396,23.875z"/>
<path d="M30.887,23.658c-0.391,0.391-0.391,1.023,0,1.414l5.215,5.215c0.195,0.195,0.451,0.293,0.707,0.293s0.512-0.098,0.707-0.293
	c0.391-0.391,0.391-1.023,0-1.414l-5.215-5.215C31.91,23.267,31.277,23.267,30.887,23.658z"/>
<path d="M22.596,43.368c0,0.552,0.448,1,1,1h7.375c0.552,0,1-0.448,1-1s-0.448-1-1-1h-7.375
	C23.043,42.368,22.596,42.815,22.596,43.368z"/>
<path d="M77.47,42.675h-7.375c-0.552,0-1,0.448-1,1s0.448,1,1,1h7.375c0.552,0,1-0.448,1-1S78.022,42.675,77.47,42.675z"/>
</svg>
